# xmcd
#
# Track frame offsets:
#	225
#	22817
#	51512
#	74338
#	88940
#	103171
#	131601
#	154194
#	184256
#	199811
#	229041
#	246281
#
# Disc length: 3532 seconds
#
# Revision: 1
# Processed by: cddbd v1.5.2PL0 Copyright (c) Steve Scherf et al.
# Submitted via: EZCDAudioConverter 3.1.2.1
#
DISCID=ab0dc90c
DTITLE=All Time Classic Hits Vol. 10
DYEAR=1900
DGENRE=Blues
TTITLE0=Ralph Carter - Extra, Extra
TTITLE1=Luther Vanderros - Papllion
TTITLE2=Bananarama - More, More, More
TTITLE3=First Choice - Gotta Get away
TTITLE4=Party Dolls - Band of Gold
TTITLE5=Luther Vandros - Dream (alway rises on the top)
TTITLE6=Loose Change - all night man
TTITLE7=TJM - I don't need no music
TTITLE8=Carol Douglas - Running of of things to say
TTITLE9=Love Machine - desparatly
TTITLE10=Creame D'Cocoa - Sweet Dream Lady
TTITLE11=Philly Crove Orchestra - guess what Mary Jones did
EXTD=
EXTT0=
EXTT1=
EXTT2=
EXTT3=
EXTT4=
EXTT5=
EXTT6=
EXTT7=
EXTT8=
EXTT9=
EXTT10=
EXTT11=
PLAYORDER=
